<svg width="37" height="36" viewBox="0 0 37 36" fill="none" xmlns="http://www.w3.org/2000/svg">
<path d="M1 35L1 24.848C1 23.1291 2.24679 21.6568 3.93999 21.3605V21.3605C5.27905 21.1262 6.52911 20.5062 7.52291 19.5786V19.5786C8.94347 18.2528 9.75 16.3968 9.75 14.4536V13.125L9.01522 12.0228C6.64161 8.46242 5.375 4.27908 5.375 0V0M36 35V24.848C36 23.1291 34.7532 21.6568 33.06 21.3605V21.3605C31.721 21.1262 30.4709 20.5062 29.4771 19.5786V19.5786C28.0565 18.2528 27.25 16.3968 27.25 14.4536V13.125L27.9848 12.0228C30.3584 8.46242 31.625 4.27908 31.625 0V0" stroke="#4182E2" stroke-width="2" stroke-linecap="round"/>
<path d="M13.0312 19.6875L13.9653 23.4235C14.0714 23.8482 14.2238 24.26 14.4195 24.6516L15.2188 26.25M22.875 19.6875L21.941 23.4235C21.8348 23.8482 21.6825 24.26 21.4867 24.6516L20.6875 26.25M6.46875 30.625H14.6007C14.9795 30.625 15.3258 30.839 15.4951 31.1778L16.3125 32.8125M20.6875 32.8125L21.5049 31.1778C21.6742 30.839 22.0205 30.625 22.3993 30.625L30.5312 30.625" stroke="#4182E2" stroke-width="1.8" stroke-linecap="round"/>
<path d="M9.75 13.125V13.125C10.4725 13.8475 11.3263 14.4256 12.2655 14.8281L15.2022 16.0867C17.3081 16.9892 19.6919 16.9892 21.7978 16.0867L24.7345 14.8281C25.6737 14.4256 26.5275 13.8475 27.25 13.125V13.125" stroke="#4182E2" stroke-width="2" stroke-linecap="round"/>
</svg>
