<svg width="37" height="37" viewBox="0 0 37 37" fill="none" xmlns="http://www.w3.org/2000/svg">
<path d="M1 3.25807L1 36L12.4194 36C12.9716 36 13.4194 35.5523 13.4194 35L13.4194 31.6233C13.4194 31.5331 13.4501 31.4455 13.5065 31.375C16.436 27.713 18.7 23.5451 20.183 19.0962C20.1887 19.079 20.2077 19.0702 20.2245 19.0769C23.9332 20.5604 27.891 21.3226 31.8854 21.3226L36 21.3226L36 12.2903L34.6886 10.979C31.1908 7.48117 26.4468 5.51613 21.5002 5.51613L21.4043 5.51613C21.3513 5.51613 21.2996 5.49892 21.2572 5.46708L19.192 3.9182C17.6216 2.74038 15.8073 1.92921 13.8824 1.54423C12.0881 1.18536 10.2386 1.20504 8.45236 1.60199L1 3.25807Z" stroke="#4182E2" stroke-width="2" stroke-linecap="round"/>
<path d="M14.5481 13.4193L14.5481 17.1562C14.5481 18.4005 14.1798 19.617 13.4896 20.6523V20.6523C12.7121 21.8185 11.5681 22.6922 10.2385 23.1354L9.99052 23.2181C9.27018 23.4582 8.51583 23.5806 7.75652 23.5806L0.99971 23.5806" stroke="#4182E2" stroke-width="1.8" stroke-linecap="round"/>
<path d="M7.77441 29.2258L2.12925 29.2258" stroke="#4182E2" stroke-width="1.8" stroke-linecap="round"/>
</svg>
