<svg width="37" height="39" viewBox="0 0 37 39" fill="none" xmlns="http://www.w3.org/2000/svg">
<path d="M5.66667 1L1.1 1C1.04477 1 1 1.04478 1 1.1L1 14.9571C1 14.9808 1.0192 15 1.04287 15L1.20252 15C5.70473 15 10.1775 14.2742 14.4487 12.8504L14.602 12.7993C14.7978 12.7341 15 12.8798 15 13.0862L15 18.5753C15 21.5556 15.9666 24.4555 17.7548 26.8397L18.2609 27.5145C18.42 27.7266 18.5597 27.9526 18.6783 28.1898L18.8742 28.5817C19.3731 29.5794 19.3731 30.7539 18.8742 31.7517C18.6281 32.2438 18.5 32.7865 18.5 33.3367L18.5 35.175C18.5 35.7033 18.7098 36.2098 19.0833 36.5833C19.4568 36.9568 19.9634 37.1667 20.4916 37.1667L32.5 37.1667L34.5579 37.1667C35.3544 37.1667 36 36.521 36 35.7246C36 35.1784 35.6914 34.679 35.2028 34.4348L34.1233 33.895C33.8206 33.7436 33.4969 33.6384 33.1631 33.5827L27.3766 32.6183C26.9149 32.5414 26.4887 32.3221 26.1578 31.9911C25.7366 31.5699 25.5 30.9987 25.5 30.4031L25.5 29L25.5 18.5L25.5 14.592C25.5 12.5586 25.0266 10.5532 24.1172 8.73444L23.9045 8.30906C23.4158 7.33164 22.7727 6.43939 22 5.66667C21.2273 4.89394 20.335 4.25085 19.3576 3.76214L17.9817 3.07417C15.2536 1.71014 12.2454 1 9.19534 1L5.66667 1Z" stroke="#4182E2" stroke-width="2" stroke-linecap="round"/>
<path d="M4.49984 5.66663C5.17818 5.66663 9.1844 4.77074 12.6665 5.66655" stroke="#4182E2" stroke-width="1.8" stroke-linecap="round" stroke-linejoin="round"/>
</svg>
