<svg width="37" height="39" viewBox="0 0 37 39" fill="none" xmlns="http://www.w3.org/2000/svg">
<path d="M31.3333 1L35.9 1C35.9552 1 36 1.04477 36 1.1V14.9571C36 14.9808 35.9808 15 35.9571 15H35.7975C31.2953 15 26.8225 14.2742 22.5513 12.8504L22.398 12.7993C22.2022 12.7341 22 12.8798 22 13.0862V18.5753C22 21.5556 21.0334 24.4555 19.2452 26.8397L18.7391 27.5145C18.58 27.7266 18.4403 27.9526 18.3217 28.1898L18.1258 28.5817C17.6269 29.5794 17.6269 30.7539 18.1258 31.7517C18.3719 32.2438 18.5 32.7864 18.5 33.3367L18.5 35.175C18.5 35.7033 18.2902 36.2098 17.9167 36.5833C17.5432 36.9568 17.0366 37.1667 16.5084 37.1667H4.5H2.44208C1.64564 37.1667 1 36.521 1 35.7246C1 35.1784 1.30861 34.679 1.79716 34.4348L2.87673 33.895C3.17943 33.7436 3.50306 33.6384 3.83689 33.5827L9.62344 32.6183C10.0851 32.5414 10.5113 32.3221 10.8422 31.9911C11.2634 31.5699 11.5 30.9987 11.5 30.4031V29L11.5 18.5L11.5 14.592C11.5 12.5586 11.9734 10.5532 12.8828 8.73444L13.0955 8.30906C13.5842 7.33164 14.2273 6.43939 15 5.66667C15.7727 4.89394 16.665 4.25085 17.6424 3.76213L19.0183 3.07417C21.7464 1.71014 24.7546 1 27.8047 1L31.3333 1Z" stroke="#4182E2" stroke-width="2" stroke-linecap="round"/>
<path d="M32.5002 5.66663C31.8218 5.66663 27.8156 4.77074 24.3335 5.66655" stroke="#4182E2" stroke-width="1.8" stroke-linecap="round" stroke-linejoin="round"/>
</svg>
