<svg width="37" height="37" viewBox="0 0 37 37" fill="none" xmlns="http://www.w3.org/2000/svg">
<path d="M7.5625 36L7.5625 26.0625C7.5625 25.5102 7.11478 25.0625 6.5625 25.0625H2C1.44772 25.0625 1 24.6148 1 24.0625L1 9.76119C1 9.75378 1.00119 9.74642 1.00354 9.73938L1.268 8.946C1.78782 7.38653 3.01153 6.16282 4.571 5.643V5.643C5.10352 5.46549 5.66117 5.375 6.22249 5.375L11.1641 5.375C11.6593 5.375 12.1342 5.17828 12.4844 4.82812V4.82812C12.8345 4.47797 13.0312 4.00305 13.0312 3.50785V1M29.4375 36L29.4375 26.0625C29.4375 25.5102 29.8852 25.0625 30.4375 25.0625L35.1112 25.0625C35.6021 25.0625 36 24.6646 36 24.1737L36 10.5975C36 10.0362 35.9095 9.47852 35.732 8.946V8.946C35.2122 7.38653 33.9885 6.16282 32.429 5.643V5.643C31.8965 5.46549 31.3388 5.375 30.7775 5.375L25.8359 5.375C25.3407 5.375 24.8658 5.17828 24.5156 4.82812V4.82812C24.1655 4.47797 23.9688 4.00305 23.9688 3.50785V1" stroke="#4182E2" stroke-width="2" stroke-linecap="round"/>
<path d="M14.125 36L13.5204 34.7908C13.1987 34.1474 13.0313 33.438 13.0313 32.7188V32.7188L13.0312 25.0625M23.9688 25.0625V32.7188V32.7188C23.9688 33.438 23.8013 34.1474 23.4796 34.7908L22.875 36M18.5 25.0625V30.5312" stroke="#4182E2" stroke-width="1.8" stroke-linecap="round"/>
<path d="M7.5625 15.2188L8.89199 17.213C9.4626 18.0689 10.1164 18.8664 10.8438 19.5938V19.5938V19.5938C11.5441 20.2941 12.4939 20.6875 13.4843 20.6875H15.4064C15.9866 20.6875 16.543 20.457 16.9532 20.0468V20.0468C17.8075 19.1925 19.1925 19.1925 20.0468 20.0468V20.0468C20.457 20.457 21.0134 20.6875 21.5936 20.6875H23.5157C24.5061 20.6875 25.4559 20.2941 26.1562 19.5937V19.5937V19.5937C26.8836 18.8664 27.5374 18.0689 28.108 17.213L29.4375 15.2187" stroke="#4182E2" stroke-width="1.8" stroke-linecap="round"/>
<rect x="11.9375" y="14.125" width="2.1875" height="2.1875" rx="1" fill="#4182E2"/>
<rect x="22.875" y="14.125" width="2.1875" height="2.1875" rx="1" fill="#4182E2"/>
</svg>
