<svg width="37" height="37" viewBox="0 0 37 37" fill="none" xmlns="http://www.w3.org/2000/svg">
<path d="M36 3.25806L36 36H24.5806C24.0284 36 23.5806 35.5523 23.5806 35L23.5806 31.6233C23.5806 31.533 23.5499 31.4455 23.4935 31.375C20.564 27.713 18.3 23.5451 16.817 19.0962C16.8113 19.079 16.7923 19.0702 16.7755 19.0769C13.0668 20.5604 9.10901 21.3226 5.11456 21.3226H1L1 12.2903L2.31137 10.979C5.80916 7.48117 10.5532 5.51613 15.4998 5.51613H15.5957C15.6487 5.51613 15.7004 5.49892 15.7428 5.46707L17.808 3.9182C19.3784 2.74038 21.1927 1.92921 23.1176 1.54422C24.9119 1.18536 26.7614 1.20504 28.5476 1.60199L36 3.25806Z" stroke="#4182E2" stroke-width="2" stroke-linecap="round"/>
<path d="M22.4519 13.4193V17.1562C22.4519 18.4005 22.8202 19.617 23.5104 20.6523V20.6523C24.2879 21.8185 25.4319 22.6922 26.7615 23.1354L27.0095 23.2181C27.7298 23.4582 28.4842 23.5806 29.2435 23.5806H36.0003" stroke="#4182E2" stroke-width="1.8" stroke-linecap="round"/>
<path d="M29.2256 29.2258H34.8707" stroke="#4182E2" stroke-width="1.8" stroke-linecap="round"/>
</svg>
