<svg width="71" height="70" viewBox="0 0 71 70" fill="none" xmlns="http://www.w3.org/2000/svg">
<path opacity="0.3" fill-rule="evenodd" clip-rule="evenodd" d="M6.1665 59.75C6.1665 60.5784 6.83808 61.25 7.6665 61.25H62.9998C63.8283 61.25 64.4998 60.5784 64.4998 59.75V21.9166C64.4998 21.0882 63.8283 20.4166 62.9998 20.4166H29.4998L21.1892 12.106C20.9079 11.8247 20.5263 11.6666 20.1285 11.6666H7.6665C6.83808 11.6666 6.1665 12.3382 6.1665 13.1666V59.75Z" fill="#808080"/>
<path opacity="0.3" fill-rule="evenodd" clip-rule="evenodd" d="M12 55.4167L29.5 32.0834L47 55.4167H12Z" fill="#808080"/>
<path fill-rule="evenodd" clip-rule="evenodd" d="M32.4165 55.4167L44.0832 40.8334L55.7498 55.4167H32.4165Z" fill="#808080"/>
<path opacity="0.3" fill-rule="evenodd" clip-rule="evenodd" d="M52.8333 35C55.2495 35 57.2083 33.0412 57.2083 30.625C57.2083 28.2088 55.2495 26.25 52.8333 26.25C50.417 26.25 48.4583 28.2088 48.4583 30.625C48.4583 33.0412 50.417 35 52.8333 35Z" fill="#808080"/>
</svg>
