<svg viewBox="0 0 16 16" fill="none" xmlns="http://www.w3.org/2000/svg">
<path d="M4.1 7.36667V9.9M11.9 6.1V8.63333M11.25 2.93333C12.8417 2.93333 13.7025 3.17068 14.1309 3.35478C14.1879 3.3793 14.2164 3.39156 14.2988 3.4681C14.3481 3.51399 14.4382 3.64862 14.4613 3.71112C14.5 3.8154 14.5 3.8724 14.5 3.9864V10.7937C14.5 11.3693 14.5 11.6571 14.4114 11.805C14.3213 11.9554 14.2344 12.0254 14.0658 12.0832C13.9 12.1401 13.5653 12.0774 12.8959 11.9521C12.4274 11.8644 11.8717 11.8 11.25 11.8C9.3 11.8 7.35 13.0667 4.75 13.0667C3.15834 13.0667 2.29746 12.8293 1.86912 12.6452C1.81208 12.6207 1.78356 12.6084 1.70124 12.5319C1.6519 12.486 1.56183 12.3514 1.53866 12.2889C1.5 12.1846 1.5 12.1276 1.5 12.0136L1.5 5.20628C1.5 4.63072 1.5 4.34295 1.58858 4.19503C1.67869 4.04456 1.76558 3.97461 1.93424 3.91678C2.10004 3.85993 2.43472 3.92259 3.10409 4.0479C3.5726 4.13562 4.12826 4.2 4.75 4.2C6.7 4.2 8.65 2.93333 11.25 2.93333ZM9.625 8C9.625 8.87445 8.89746 9.58333 8 9.58333C7.10254 9.58333 6.375 8.87445 6.375 8C6.375 7.12555 7.10254 6.41667 8 6.41667C8.89746 6.41667 9.625 7.12555 9.625 8Z" stroke-linecap="round" stroke-linejoin="round"/>
</svg>
