<svg viewBox="0 0 17 16" fill="none" xmlns="http://www.w3.org/2000/svg">
<path d="M7.85 1.66666L9.8 3.56666M9.8 3.56666L7.85 5.46666M9.8 3.56666H5.12C4.0279 3.56666 3.48185 3.56666 3.06472 3.77374C2.6978 3.9559 2.39949 4.24657 2.21254 4.60407C2 5.01051 2 5.54256 2 6.60666V10.2167C2 10.5108 2 10.6579 2.01668 10.7813C2.13188 11.6339 2.82044 12.3048 3.69547 12.4171C3.82219 12.4333 3.97313 12.4333 4.275 12.4333M7.2 12.4333H11.88C12.9721 12.4333 13.5182 12.4333 13.9353 12.2262C14.3022 12.0441 14.6005 11.7534 14.7875 11.3959C15 10.9895 15 10.4574 15 9.39332V5.78332C15 5.48919 15 5.34212 14.9833 5.21866C14.8681 4.36606 14.1796 3.69516 13.3045 3.58291C13.1778 3.56666 13.0269 3.56666 12.725 3.56666M7.2 12.4333L9.15 14.3333M7.2 12.4333L9.15 10.5333" stroke-linecap="round" stroke-linejoin="round"/>
</svg>
