<svg width="20" height="20" viewBox="0 0 20 20" fill="none" xmlns="http://www.w3.org/2000/svg">
<path d="M4.99984 9.16683V12.5002M14.9998 7.50016V10.8335M14.1665 3.3335C16.2071 3.3335 17.3108 3.6458 17.8599 3.88803C17.9331 3.92029 17.9696 3.93642 18.0752 4.03714C18.1384 4.09751 18.2539 4.27466 18.2836 4.3569C18.3332 4.49411 18.3332 4.56911 18.3332 4.71911V13.6761C18.3332 14.4334 18.3332 14.8121 18.2196 15.0067C18.1041 15.2047 17.9927 15.2967 17.7765 15.3728C17.5639 15.4476 17.1348 15.3652 16.2766 15.2003C15.676 15.0849 14.9636 15.0002 14.1665 15.0002C11.6665 15.0002 9.1665 16.6668 5.83317 16.6668C3.79258 16.6668 2.68889 16.3545 2.13974 16.1123C2.06661 16.08 2.03004 16.0639 1.9245 15.9632C1.86124 15.9028 1.74577 15.7257 1.71606 15.6434C1.6665 15.5062 1.6665 15.4312 1.6665 15.2812L1.6665 6.32421C1.6665 5.5669 1.6665 5.18825 1.78007 4.99362C1.89559 4.79563 2.007 4.70359 2.22322 4.62751C2.43578 4.55271 2.86487 4.63515 3.72303 4.80004C4.32369 4.91545 5.03607 5.00016 5.83317 5.00016C8.33317 5.00016 10.8332 3.3335 14.1665 3.3335ZM12.0832 10.0002C12.0832 11.1508 11.1504 12.0835 9.99984 12.0835C8.84924 12.0835 7.9165 11.1508 7.9165 10.0002C7.9165 8.84957 8.84924 7.91683 9.99984 7.91683C11.1504 7.91683 12.0832 8.84957 12.0832 10.0002Z" stroke="#F64740" stroke-linecap="round" stroke-linejoin="round"/>
</svg>
