<svg width="29" height="29" viewBox="0 0 29 29" fill="none" xmlns="http://www.w3.org/2000/svg">
<path d="M14.4998 10.8748V15.7081M14.4998 20.5415H14.5119M12.8266 4.70229L2.88822 21.8686C2.33698 22.8208 2.06135 23.2969 2.10209 23.6876C2.13762 24.0284 2.31618 24.3381 2.59332 24.5396C2.91106 24.7706 3.46117 24.7706 4.56138 24.7706H24.4382C25.5384 24.7706 26.0885 24.7706 26.4063 24.5396C26.6834 24.3381 26.8619 24.0284 26.8975 23.6876C26.9382 23.2969 26.6626 22.8208 26.1113 21.8686L16.1729 4.70229C15.6237 3.75355 15.349 3.27918 14.9907 3.11986C14.6782 2.98088 14.3214 2.98088 14.0088 3.11986C13.6505 3.27918 13.3759 3.75355 12.8266 4.70229Z" stroke="#00BC7E" stroke-width="2" stroke-linecap="round" stroke-linejoin="round"/>
</svg>
