<svg width="29" height="29" viewBox="0 0 29 29" fill="none" xmlns="http://www.w3.org/2000/svg">
<path d="M10.8748 25.375V16.4333C10.8748 15.7566 10.8748 15.4182 11.0065 15.1598C11.1224 14.9324 11.3072 14.7475 11.5346 14.6317C11.7931 14.5 12.1314 14.5 12.8082 14.5H16.1915C16.8682 14.5 17.2066 14.5 17.4651 14.6317C17.6924 14.7475 17.8773 14.9324 17.9931 15.1598C18.1248 15.4182 18.1248 15.7566 18.1248 16.4333V25.375M2.4165 11.4792L13.3398 3.28667C13.7558 2.97468 13.9638 2.81869 14.1922 2.75856C14.3939 2.70548 14.6058 2.70548 14.8074 2.75856C15.0359 2.81869 15.2439 2.97468 15.6598 3.28667L26.5832 11.4792M4.83318 9.66667V21.5083C4.83318 22.8618 4.83318 23.5385 5.09658 24.0555C5.32827 24.5102 5.69797 24.8799 6.1527 25.1116C6.66965 25.375 7.34638 25.375 8.69984 25.375H20.2998C21.6533 25.375 22.33 25.375 22.847 25.1116C23.3017 24.8799 23.6714 24.5102 23.9031 24.0555C24.1665 23.5385 24.1665 22.8618 24.1665 21.5083V9.66667L16.8198 4.15667C15.9879 3.5327 15.5719 3.22071 15.115 3.10045C14.7118 2.99429 14.2879 2.99429 13.8846 3.10045C13.4278 3.22071 13.0118 3.5327 12.1798 4.15667L4.83318 9.66667Z" stroke="#00BC7E" stroke-width="2" stroke-linecap="round" stroke-linejoin="round"/>
</svg>
