<svg width="29" height="29" viewBox="0 0 29 29" fill="none" xmlns="http://www.w3.org/2000/svg">
<path d="M25.375 25.375H5.55833C4.8816 25.375 4.54324 25.375 4.28476 25.2433C4.0574 25.1275 3.87255 24.9426 3.7567 24.7152C3.625 24.4568 3.625 24.1184 3.625 23.4417V3.625M25.375 8.45833L18.8085 15.0248C18.5693 15.2641 18.4496 15.3837 18.3117 15.4285C18.1904 15.4679 18.0596 15.4679 17.9383 15.4285C17.8004 15.3837 17.6807 15.2641 17.4415 15.0248L15.1835 12.7669C14.9443 12.5276 14.8246 12.408 14.6867 12.3632C14.5654 12.3237 14.4346 12.3237 14.3133 12.3632C14.1754 12.408 14.0557 12.5276 13.8165 12.7669L8.45833 18.125M25.375 8.45833H20.5417M25.375 8.45833V13.2917" stroke="#00BC7E" stroke-width="2" stroke-linecap="round" stroke-linejoin="round"/>
</svg>
