<svg width="29" height="29" viewBox="0 0 29 29" fill="none" xmlns="http://www.w3.org/2000/svg">
<path d="M16.9168 2.74219V7.73326C16.9168 8.40999 16.9168 8.74835 17.0485 9.00683C17.1644 9.23419 17.3492 9.41904 17.5766 9.53489C17.8351 9.66659 18.1734 9.66659 18.8502 9.66659H23.8412M19.3335 15.7082H9.66683M19.3335 20.5415H9.66683M12.0835 10.8748H9.66683M16.9168 2.4165H10.6335C8.60331 2.4165 7.58821 2.4165 6.81278 2.81161C6.13069 3.15915 5.57614 3.7137 5.2286 4.39579C4.8335 5.17122 4.8335 6.18631 4.8335 8.2165V20.7832C4.8335 22.8134 4.8335 23.8285 5.2286 24.6039C5.57614 25.286 6.13069 25.8405 6.81278 26.1881C7.58821 26.5832 8.60331 26.5832 10.6335 26.5832H18.3668C20.397 26.5832 21.4121 26.5832 22.1875 26.1881C22.8696 25.8405 23.4242 25.286 23.7717 24.6039C24.1668 23.8285 24.1668 22.8134 24.1668 20.7832V9.6665L16.9168 2.4165Z" stroke="#00BC7E" stroke-width="2" stroke-linecap="round" stroke-linejoin="round"/>
</svg>
