<svg width="131" height="39" viewBox="0 0 131 39" fill="none" xmlns="http://www.w3.org/2000/svg">
<path d="M49.5341 38.3705C46.0387 38.3705 42.5433 38.3308 39.0478 38.4102C37.8562 38.4499 37.5781 38.0924 37.8165 36.9405C40.0805 25.1037 42.3049 13.3065 44.4896 1.46968C44.6882 0.357489 45.1251 0 46.277 0C61.5696 0.039721 76.8622 0.039721 92.1548 0C93.5847 0 93.7039 0.436931 93.5053 1.66828C92.5917 7.07034 92.6314 7.07034 87.1102 7.07034C84.4886 7.07034 81.8273 7.11006 79.2057 7.03062C78.0936 6.9909 77.5375 7.26894 77.3786 8.46057C77.18 10.1289 76.8225 11.8369 76.465 13.4654C76.1869 14.6173 76.4253 15.094 77.7758 15.0543C81.4698 14.9748 85.1639 15.0543 88.8579 15.0145C90.0893 14.9748 90.5659 15.2926 90.2085 16.5637C89.6921 18.3114 90.129 20.6946 88.8977 21.7671C87.706 22.7601 85.4817 22.0452 83.6942 22.0452C81.2712 22.0849 78.8085 22.1246 76.3856 22.0054C75.1542 21.9657 74.7967 22.4424 74.6378 23.5148C74.3201 25.6598 74.0023 27.8047 73.4859 29.8702C73.1284 31.3399 73.8037 31.3399 74.8762 31.3399C78.7688 31.3002 82.6615 31.3796 86.5541 31.3002C87.8252 31.2604 88.2224 31.4988 87.9841 32.889C87.0308 38.3308 87.0705 38.3308 81.6287 38.3308C76.4253 38.3308 71.2218 38.291 66.0184 38.3705C64.2706 38.4102 63.6351 38.2116 64.072 36.1858C65.8992 27.1294 67.488 18.0731 69.2755 9.01667C69.5933 7.30866 69.196 6.95118 67.488 6.9909C62.7215 7.11006 57.9947 7.11006 53.2282 6.9909C51.8777 6.95118 51.401 7.42783 51.2422 8.6989C51.0435 10.248 50.7655 11.7971 50.408 13.3463C50.0505 14.8159 50.5669 15.094 51.9571 15.0543C55.969 14.9748 60.0205 15.0543 64.0323 15.0145C65.1842 15.0145 65.9786 15.0145 65.502 16.5637C64.9856 18.3114 65.4623 20.6549 64.1912 21.7274C62.9996 22.7601 60.7752 22.0054 59.0275 22.0452C56.1278 22.0849 53.2282 22.1246 50.3286 22.0054C49.0972 21.9657 48.7795 22.4821 48.6206 23.5546C48.3028 25.6995 47.9453 27.8047 47.4687 29.9099C47.1906 31.1413 47.5481 31.3796 48.7 31.3399C52.8707 31.3002 57.0017 31.3796 61.1724 31.3002C62.5229 31.2604 62.9201 31.6576 62.5626 32.9684C62.1257 34.6764 62.3243 36.9405 61.2916 37.9733C60.0999 39.1252 57.7961 38.291 55.9689 38.3308C53.7446 38.4102 51.6394 38.3705 49.5341 38.3705Z" fill="#00BC7E"/>
<path d="M127.586 33.7628C124.249 33.7628 124.249 33.7628 124.051 30.5057C123.812 26.6925 123.812 26.6925 120.039 26.6925C115.59 26.6925 115.59 26.6925 113.922 30.7043C112.452 34.2395 112.452 34.2395 108.639 34.2395C107.328 34.2395 105.977 34.1203 104.667 34.2395C95.2528 35.0339 89.4933 26.4541 91.3999 18.1922C93.1476 10.5657 98.4702 5.32256 106.812 4.76646C109.513 4.60758 112.214 4.6473 114.796 5.71977C115.63 6.07726 115.987 6.43475 115.59 7.30861C115.55 7.42777 115.511 7.54693 115.431 7.6661C115.074 8.77829 114.994 10.1685 114.239 10.9629C113.366 11.8765 112.095 10.6849 110.982 10.5657C104.905 9.89047 100.893 12.0751 98.9469 17.4375C96.7622 23.3162 101.489 28.7977 106.097 28.2813C107.288 28.1621 107.964 27.8444 108.52 26.7322C111.896 19.9399 115.59 13.3065 118.649 6.3553C119.165 5.16367 119.8 4.52814 121.151 4.80618C121.27 4.84591 121.429 4.80618 121.548 4.80618C123.494 4.96507 126.076 3.97204 127.228 5.24312C128.34 6.47447 128.023 8.93717 128.261 10.8835C129.135 17.8347 129.929 24.7859 130.922 31.6973C131.161 33.3259 130.922 34.0408 129.175 33.7628C128.618 33.6834 128.102 33.7628 127.586 33.7628ZM122.462 11.7574C122.263 11.7176 122.104 11.6779 121.906 11.6779C120.595 14.8159 119.284 17.9141 117.814 21.3301C119.483 21.3301 120.913 21.3301 122.343 21.3301C122.859 21.3301 123.256 21.2507 123.177 20.5754C122.938 17.6361 122.7 14.6967 122.462 11.7574Z" fill="white"/>
<path d="M23.8346 10.5657C20.1008 10.5657 16.4862 10.5657 12.8319 10.5657C12.5935 10.5657 12.1566 10.6451 12.1169 10.7643C11.6402 12.7106 11.1239 14.657 10.8458 16.643C10.7664 17.1197 11.6005 16.9211 12.0375 16.9211C14.4604 16.9608 16.9231 16.9608 19.3461 16.9211C20.3789 16.8813 20.6966 17.1197 20.4583 18.2716C19.6242 22.6409 19.7036 22.6409 15.1754 22.6806C13.2688 22.6806 10.9253 21.9259 9.57475 22.9587C8.22423 23.9914 8.58172 26.4541 8.06535 28.2813C7.74758 29.3935 7.39009 30.5454 7.31065 31.737C7.19149 33.2861 6.51623 33.9217 4.92739 33.723C3.73576 33.6039 2.54413 33.6039 1.3525 33.723C-0.0377359 33.8422 -0.156899 33.2464 0.121148 32.0945C2.1072 23.3956 4.05353 14.7364 5.96014 6.07722C6.15874 5.0842 6.59567 4.80615 7.54898 4.80615C15.2549 4.84587 23.0005 4.84587 30.7063 4.80615C31.8185 4.80615 32.176 5.00476 31.898 6.23611C30.3488 12.8695 28.9189 19.5029 27.3698 26.1363C27.0123 27.606 27.2109 28.0827 28.8394 27.9635C31.2624 27.8046 33.7251 27.9635 36.1481 27.9238C37.2206 27.9238 37.6575 28.0032 37.3795 29.314C36.585 33.6436 36.6645 33.6436 32.2554 33.6833C28.2436 33.6833 24.1921 33.6436 20.1803 33.723C18.9092 33.723 18.6709 33.4053 18.9886 32.1342C20.6172 25.0241 22.206 17.8744 23.8346 10.5657Z" fill="white"/>
</svg>
