<svg width="108" height="108" viewBox="0 0 108 108" fill="none" xmlns="http://www.w3.org/2000/svg">
<path d="M63 10.2129V28.8003C63 31.3206 63 32.5807 63.4905 33.5433C63.9219 34.39 64.6103 35.0784 65.457 35.5098C66.4196 36.0003 67.6798 36.0003 70.2 36.0003H88.7874M63 9H39.6C32.0393 9 28.2589 9 25.3711 10.4714C22.8309 11.7657 20.7657 13.8309 19.4714 16.3711C18 19.2589 18 23.0393 18 30.6V77.4C18 84.9607 18 88.7411 19.4714 91.6289C20.7657 94.1691 22.8309 96.2343 25.3711 97.5286C28.2589 99 32.0393 99 39.6 99H68.4C75.9607 99 79.7411 99 82.6289 97.5286C85.1691 96.2343 87.2343 94.1691 88.5286 91.6289C90 88.7411 90 84.9607 90 77.4V36L63 9ZM53.9877 53.2377C50.3888 49.1472 44.3875 48.0469 39.8785 51.7925C35.3694 55.5382 34.7345 61.8007 38.2756 66.2307C41.8166 70.6607 53.9877 81 53.9877 81C53.9877 81 66.1588 70.6607 69.6998 66.2307C73.2408 61.8007 72.6835 55.4988 68.0969 51.7925C63.5103 48.0863 57.5865 49.1472 53.9877 53.2377Z" stroke="#00BC7E" stroke-opacity="0.5" stroke-width="2" stroke-linecap="round" stroke-linejoin="round"/>
</svg>
