<svg width="29" height="29" viewBox="0 0 29 29" fill="none" xmlns="http://www.w3.org/2000/svg">
<path d="M15.7082 6.04167C15.7082 7.37636 12.7327 8.45833 9.06234 8.45833C5.39194 8.45833 2.4165 7.37636 2.4165 6.04167M15.7082 6.04167C15.7082 4.70698 12.7327 3.625 9.06234 3.625C5.39194 3.625 2.4165 4.70698 2.4165 6.04167M15.7082 6.04167V7.85417M2.4165 6.04167V20.5417C2.4165 21.8764 5.39194 22.9583 9.06234 22.9583M9.06234 13.2917C8.85868 13.2917 8.65716 13.2883 8.45817 13.2818C5.07091 13.1708 2.4165 12.1356 2.4165 10.875M9.06234 18.125C5.39194 18.125 2.4165 17.043 2.4165 15.7083M26.5832 13.8958C26.5832 15.2305 23.6077 16.3125 19.9373 16.3125C16.2669 16.3125 13.2915 15.2305 13.2915 13.8958M26.5832 13.8958C26.5832 12.5611 23.6077 11.4792 19.9373 11.4792C16.2669 11.4792 13.2915 12.5611 13.2915 13.8958M26.5832 13.8958V22.9583C26.5832 24.293 23.6077 25.375 19.9373 25.375C16.2669 25.375 13.2915 24.293 13.2915 22.9583V13.8958M26.5832 18.4271C26.5832 19.7618 23.6077 20.8438 19.9373 20.8438C16.2669 20.8438 13.2915 19.7618 13.2915 18.4271" stroke="#00BC7E" stroke-width="2" stroke-linecap="round" stroke-linejoin="round"/>
</svg>
